<svg width="20" height="14" viewBox="0 0 20 14" fill="none" xmlns="http://www.w3.org/2000/svg">
<g id="ph:plus-bold" clip-path="url(#clip0_452_66981)">
<path id="Vector" d="M15.5243 12.5242C15.3485 12.7 15.11 12.7988 14.8614 12.7988C14.6127 12.7988 14.3743 12.7 14.1984 12.5242L10 8.32578L5.80155 12.5242C5.62574 12.7 5.38728 12.7988 5.13864 12.7988C4.89 12.7988 4.65154 12.7 4.47573 12.5242C4.29991 12.3484 4.20114 12.11 4.20114 11.8613C4.20114 11.6127 4.29991 11.3742 4.47573 11.1984L8.67417 6.99996L4.47573 2.80151C4.29991 2.6257 4.20114 2.38724 4.20114 2.1386C4.20114 1.88996 4.29991 1.6515 4.47573 1.47569C4.65154 1.29987 4.89 1.2011 5.13864 1.2011C5.38728 1.2011 5.62574 1.29987 5.80155 1.47569L10 5.67413L14.1984 1.47569C14.3743 1.29987 14.6127 1.2011 14.8614 1.2011C15.11 1.2011 15.3485 1.29987 15.5243 1.47569C15.7001 1.6515 15.7989 1.88996 15.7989 2.1386C15.7989 2.38724 15.7001 2.6257 15.5243 2.80151L11.3258 6.99996L15.5243 11.1984C15.7001 11.3742 15.7989 11.6127 15.7989 11.8613C15.7989 12.11 15.7001 12.3484 15.5243 12.5242Z" fill="#696969"/>
</g>
<defs>
<clipPath id="clip0_452_66981">
<rect width="20" height="14" fill="white"/>
</clipPath>
</defs>
</svg>
