<svg width="53" height="53" viewBox="0 0 53 53" fill="none" xmlns="http://www.w3.org/2000/svg">
<g id="ph:plus-bold" clip-path="url(#clip0_452_66905)">
<path id="Vector" d="M41.1393 41.1393C40.6734 41.6052 40.0415 41.8669 39.3826 41.8669C38.7237 41.8669 38.0918 41.6052 37.6259 41.1393L26.5 30.0134L15.3741 41.1393C14.9082 41.6052 14.2763 41.8669 13.6174 41.8669C12.9585 41.8669 12.3266 41.6052 11.8607 41.1393C11.3948 40.6734 11.133 40.0415 11.133 39.3826C11.133 38.7237 11.3948 38.0917 11.8607 37.6258L22.9866 26.5L11.8607 15.3741C11.3948 14.9082 11.133 14.2762 11.133 13.6174C11.133 12.9585 11.3948 12.3265 11.8607 11.8606C12.3266 11.3947 12.9585 11.133 13.6174 11.133C14.2763 11.133 14.9082 11.3947 15.3741 11.8606L26.5 22.9865L37.6259 11.8606C38.0918 11.3947 38.7237 11.133 39.3826 11.133C40.0415 11.133 40.6734 11.3947 41.1393 11.8606C41.6052 12.3265 41.867 12.9585 41.867 13.6174C41.867 14.2762 41.6052 14.9082 41.1393 15.3741L30.0134 26.5L41.1393 37.6258C41.6052 38.0917 41.867 38.7237 41.867 39.3826C41.867 40.0415 41.6052 40.6734 41.1393 41.1393Z" fill="white"/>
</g>
<defs>
<clipPath id="clip0_452_66905">
<rect width="53" height="53" fill="white"/>
</clipPath>
</defs>
</svg>
