<svg width="51" height="29" viewBox="0 0 51 29" fill="none" xmlns="http://www.w3.org/2000/svg">
<g id="icon-vk">
<path id="Vector" d="M45.8554 3.99568C46.1529 3.04631 45.8554 2.3501 44.4486 2.3501H39.7885C38.6028 2.3501 38.0609 2.95239 37.7634 3.61389C37.7634 3.61389 35.394 9.16518 32.0365 12.7646C30.9528 13.812 30.4576 14.1428 29.8669 14.1428C29.5715 14.1428 29.1423 13.812 29.1423 12.8626V3.99568C29.1423 2.85643 28.8001 2.3501 27.812 2.3501H20.4893C19.7498 2.3501 19.3035 2.87685 19.3035 3.3791C19.3035 4.4571 20.9823 4.70618 21.1544 7.74418V14.3347C21.1544 15.7781 20.8845 16.0415 20.2895 16.0415C18.7106 16.0415 14.8686 10.4698 12.5885 4.09164C12.1444 2.85235 11.696 2.35214 10.506 2.35214H5.848C4.51563 2.35214 4.25 2.95443 4.25 3.61593C4.25 4.80418 5.82888 10.6842 11.6046 18.4609C15.4551 23.7713 20.876 26.65 25.8145 26.65C28.7746 26.65 29.1401 26.011 29.1401 24.9085V20.8946C29.1401 19.6165 29.4227 19.3592 30.3599 19.3592C31.0484 19.3592 32.2341 19.6941 34.9987 22.2523C38.1565 25.2862 38.6793 26.648 40.4536 26.648H45.1116C46.4419 26.648 47.107 26.0089 46.7245 24.7472C46.3059 23.4916 44.7971 21.6643 42.7954 19.5021C41.7074 18.269 40.0817 16.9419 39.5866 16.2783C38.896 15.4229 39.0957 15.0452 39.5866 14.2857C39.5887 14.2877 45.2646 6.60697 45.8554 3.99568Z" fill="#FF57FF"/>
</g>
</svg>
